<?xml version="1.0" encoding="UTF-8" standalone="no"?>
<!DOCTYPE svg PUBLIC "-//W3C//DTD SVG 1.1//EN"
 "http://www.w3.org/Graphics/SVG/1.1/DTD/svg11.dtd">
<!-- Generated by graphviz version 2.43.0 (0)
 -->
<!-- Title: G Pages: 1 -->
<svg width="1790pt" height="600pt"
 viewBox="0.00 0.00 1790.00 600.00" xmlns="http://www.w3.org/2000/svg" xmlns:xlink="http://www.w3.org/1999/xlink">
<g id="graph0" class="graph" transform="scale(1 1) rotate(0) translate(4 596)">
<title>G</title>
<polygon fill="white" stroke="transparent" points="-4,4 -4,-596 1786,-596 1786,4 -4,4"/>
<!-- node7 -->
<g id="node1" class="node">
<title>node7</title>
<polygon fill="lightgray" stroke="transparent" points="718,-475 718,-588 1064,-588 1064,-475 718,-475"/>
<polygon fill="none" stroke="black" points="719,-565.5 719,-586.5 1063,-586.5 1063,-565.5 719,-565.5"/>
<text text-anchor="start" x="848.5" y="-572.3" font-family="Times,serif" font-size="14.00">parent: (nil)</text>
<polygon fill="lightblue" stroke="transparent" points="719,-544.5 719,-565.5 1063,-565.5 1063,-544.5 719,-544.5"/>
<polygon fill="none" stroke="black" points="719,-544.5 719,-565.5 1063,-565.5 1063,-544.5 719,-544.5"/>
<text text-anchor="start" x="814" y="-551.3" font-family="Times,serif" font-size="14.00">ptr: 0x5b86b878c6e0</text>
<polygon fill="lightyellow" stroke="transparent" points="719,-523.5 719,-544.5 1063,-544.5 1063,-523.5 719,-523.5"/>
<polygon fill="none" stroke="black" points="719,-523.5 719,-544.5 1063,-544.5 1063,-523.5 719,-523.5"/>
<text text-anchor="start" x="853" y="-530.3" font-family="Times,serif" font-size="14.00">type: &quot;OP&quot;</text>
<polygon fill="lightgreen" stroke="transparent" points="719,-502.5 719,-523.5 1063,-523.5 1063,-502.5 719,-502.5"/>
<polygon fill="none" stroke="black" points="719,-502.5 719,-523.5 1063,-523.5 1063,-502.5 719,-502.5"/>
<text text-anchor="start" x="857.5" y="-509.3" font-family="Times,serif" font-size="14.00">data: &quot;+&quot;</text>
<polygon fill="none" stroke="black" points="719,-475.5 719,-502.5 1063,-502.5 1063,-475.5 719,-475.5"/>
<polygon fill="none" stroke="black" points="722,-478.5 722,-499.5 885,-499.5 885,-478.5 722,-478.5"/>
<text text-anchor="start" x="725" y="-485.3" font-family="Times,serif" font-size="14.00">left: 0x5b86b878c720</text>
<polygon fill="none" stroke="black" points="885,-478.5 885,-499.5 1060,-499.5 1060,-478.5 885,-478.5"/>
<text text-anchor="start" x="888" y="-485.3" font-family="Times,serif" font-size="14.00">right: 0x5b86b878c760</text>
<polygon fill="none" stroke="black" points="718,-475 718,-588 1064,-588 1064,-475 718,-475"/>
</g>
<!-- node8 -->
<g id="node2" class="node">
<title>node8</title>
<polygon fill="lightgray" stroke="transparent" points="528,-318 528,-431 874,-431 874,-318 528,-318"/>
<polygon fill="none" stroke="gray" points="529,-408.5 529,-429.5 873,-429.5 873,-408.5 529,-408.5"/>
<text text-anchor="start" x="611" y="-415.3" font-family="Times,serif" font-size="14.00">parent: 0x5b86b878c6e0</text>
<polygon fill="lightblue" stroke="transparent" points="529,-387.5 529,-408.5 873,-408.5 873,-387.5 529,-387.5"/>
<polygon fill="none" stroke="gray" points="529,-387.5 529,-408.5 873,-408.5 873,-387.5 529,-387.5"/>
<text text-anchor="start" x="623.5" y="-394.3" font-family="Times,serif" font-size="14.00">ptr: 0x5b86b878c720</text>
<polygon fill="lightyellow" stroke="transparent" points="529,-366.5 529,-387.5 873,-387.5 873,-366.5 529,-366.5"/>
<polygon fill="none" stroke="gray" points="529,-366.5 529,-387.5 873,-387.5 873,-366.5 529,-366.5"/>
<text text-anchor="start" x="663" y="-373.3" font-family="Times,serif" font-size="14.00">type: &quot;OP&quot;</text>
<polygon fill="lightgreen" stroke="transparent" points="529,-345.5 529,-366.5 873,-366.5 873,-345.5 529,-345.5"/>
<polygon fill="none" stroke="gray" points="529,-345.5 529,-366.5 873,-366.5 873,-345.5 529,-345.5"/>
<text text-anchor="start" x="670.5" y="-352.3" font-family="Times,serif" font-size="14.00">data: &quot;*&quot;</text>
<polygon fill="none" stroke="gray" points="529,-318.5 529,-345.5 873,-345.5 873,-318.5 529,-318.5"/>
<polygon fill="none" stroke="gray" points="532,-321.5 532,-342.5 695,-342.5 695,-321.5 532,-321.5"/>
<text text-anchor="start" x="535" y="-328.3" font-family="Times,serif" font-size="14.00">left: 0x5b86b878c7a0</text>
<polygon fill="none" stroke="gray" points="695,-321.5 695,-342.5 870,-342.5 870,-321.5 695,-321.5"/>
<text text-anchor="start" x="698" y="-328.3" font-family="Times,serif" font-size="14.00">right: 0x5b86b878c860</text>
<polygon fill="none" stroke="gray" points="528,-318 528,-431 874,-431 874,-318 528,-318"/>
</g>
<!-- node7&#45;&gt;node8 -->
<g id="edge1" class="edge">
<title>node7&#45;&gt;node8</title>
<path fill="none" stroke="green" d="M817.81,-470.79C806.06,-461.21 793.85,-451.24 781.93,-441.52"/>
<polygon fill="green" stroke="green" points="784.11,-438.78 774.15,-435.17 779.69,-444.21 784.11,-438.78"/>
</g>
<!-- node15 -->
<g id="node9" class="node">
<title>node15</title>
<polygon fill="lightgray" stroke="transparent" points="908.5,-318 908.5,-431 1253.5,-431 1253.5,-318 908.5,-318"/>
<polygon fill="none" stroke="gray" points="910,-408.5 910,-429.5 1253,-429.5 1253,-408.5 910,-408.5"/>
<text text-anchor="start" x="991.5" y="-415.3" font-family="Times,serif" font-size="14.00">parent: 0x5b86b878c6e0</text>
<polygon fill="lightblue" stroke="transparent" points="910,-387.5 910,-408.5 1253,-408.5 1253,-387.5 910,-387.5"/>
<polygon fill="none" stroke="gray" points="910,-387.5 910,-408.5 1253,-408.5 1253,-387.5 910,-387.5"/>
<text text-anchor="start" x="1004" y="-394.3" font-family="Times,serif" font-size="14.00">ptr: 0x5b86b878c760</text>
<polygon fill="lightyellow" stroke="transparent" points="910,-366.5 910,-387.5 1253,-387.5 1253,-366.5 910,-366.5"/>
<polygon fill="none" stroke="gray" points="910,-366.5 910,-387.5 1253,-387.5 1253,-366.5 910,-366.5"/>
<text text-anchor="start" x="1043.5" y="-373.3" font-family="Times,serif" font-size="14.00">type: &quot;OP&quot;</text>
<polygon fill="lightgreen" stroke="transparent" points="910,-345.5 910,-366.5 1253,-366.5 1253,-345.5 910,-345.5"/>
<polygon fill="none" stroke="gray" points="910,-345.5 910,-366.5 1253,-366.5 1253,-345.5 910,-345.5"/>
<text text-anchor="start" x="1051" y="-352.3" font-family="Times,serif" font-size="14.00">data: &quot;*&quot;</text>
<polygon fill="none" stroke="gray" points="910,-318.5 910,-345.5 1253,-345.5 1253,-318.5 910,-318.5"/>
<polygon fill="none" stroke="gray" points="913,-321.5 913,-342.5 1076,-342.5 1076,-321.5 913,-321.5"/>
<text text-anchor="start" x="916" y="-328.3" font-family="Times,serif" font-size="14.00">left: 0x5b86b878c920</text>
<polygon fill="none" stroke="gray" points="1076,-321.5 1076,-342.5 1250,-342.5 1250,-321.5 1076,-321.5"/>
<text text-anchor="start" x="1079" y="-328.3" font-family="Times,serif" font-size="14.00">right: 0x5b86b878c9e0</text>
<polygon fill="none" stroke="gray" points="908.5,-318 908.5,-431 1253.5,-431 1253.5,-318 908.5,-318"/>
</g>
<!-- node7&#45;&gt;node15 -->
<g id="edge8" class="edge">
<title>node7&#45;&gt;node15</title>
<path fill="none" stroke="green" d="M964.19,-470.79C975.94,-461.21 988.15,-451.24 1000.07,-441.52"/>
<polygon fill="green" stroke="green" points="1002.31,-444.21 1007.85,-435.17 997.89,-438.78 1002.31,-444.21"/>
</g>
<!-- node9 -->
<g id="node3" class="node">
<title>node9</title>
<polygon fill="lightgray" stroke="transparent" points="149,-161 149,-274 495,-274 495,-161 149,-161"/>
<polygon fill="none" stroke="gray" points="150,-251.5 150,-272.5 494,-272.5 494,-251.5 150,-251.5"/>
<text text-anchor="start" x="231.5" y="-258.3" font-family="Times,serif" font-size="14.00">parent: 0x5b86b878c720</text>
<polygon fill="lightblue" stroke="transparent" points="150,-230.5 150,-251.5 494,-251.5 494,-230.5 150,-230.5"/>
<polygon fill="none" stroke="gray" points="150,-230.5 150,-251.5 494,-251.5 494,-230.5 150,-230.5"/>
<text text-anchor="start" x="245" y="-237.3" font-family="Times,serif" font-size="14.00">ptr: 0x5b86b878c7a0</text>
<polygon fill="lightyellow" stroke="transparent" points="150,-209.5 150,-230.5 494,-230.5 494,-209.5 150,-209.5"/>
<polygon fill="none" stroke="gray" points="150,-209.5 150,-230.5 494,-230.5 494,-209.5 150,-209.5"/>
<text text-anchor="start" x="284" y="-216.3" font-family="Times,serif" font-size="14.00">type: &quot;OP&quot;</text>
<polygon fill="lightgreen" stroke="transparent" points="150,-188.5 150,-209.5 494,-209.5 494,-188.5 150,-188.5"/>
<polygon fill="none" stroke="gray" points="150,-188.5 150,-209.5 494,-209.5 494,-188.5 150,-188.5"/>
<text text-anchor="start" x="288.5" y="-195.3" font-family="Times,serif" font-size="14.00">data: &quot;+&quot;</text>
<polygon fill="none" stroke="gray" points="150,-161.5 150,-188.5 494,-188.5 494,-161.5 150,-161.5"/>
<polygon fill="none" stroke="gray" points="153,-164.5 153,-185.5 316,-185.5 316,-164.5 153,-164.5"/>
<text text-anchor="start" x="156" y="-171.3" font-family="Times,serif" font-size="14.00">left: 0x5b86b878c7e0</text>
<polygon fill="none" stroke="gray" points="316,-164.5 316,-185.5 491,-185.5 491,-164.5 316,-164.5"/>
<text text-anchor="start" x="319" y="-171.3" font-family="Times,serif" font-size="14.00">right: 0x5b86b878c820</text>
<polygon fill="none" stroke="gray" points="149,-161 149,-274 495,-274 495,-161 149,-161"/>
</g>
<!-- node8&#45;&gt;node9 -->
<g id="edge2" class="edge">
<title>node8&#45;&gt;node9</title>
<path fill="none" stroke="green" d="M555.28,-313.91C529.73,-303.46 503.06,-292.55 477.26,-282"/>
<polygon fill="green" stroke="green" points="478.38,-278.67 467.8,-278.13 475.73,-285.15 478.38,-278.67"/>
</g>
<!-- node12 -->
<g id="node6" class="node">
<title>node12</title>
<polygon fill="lightgray" stroke="transparent" points="529.5,-161 529.5,-274 874.5,-274 874.5,-161 529.5,-161"/>
<polygon fill="none" stroke="gray" points="531,-251.5 531,-272.5 874,-272.5 874,-251.5 531,-251.5"/>
<text text-anchor="start" x="612" y="-258.3" font-family="Times,serif" font-size="14.00">parent: 0x5b86b878c720</text>
<polygon fill="lightblue" stroke="transparent" points="531,-230.5 531,-251.5 874,-251.5 874,-230.5 531,-230.5"/>
<polygon fill="none" stroke="gray" points="531,-230.5 531,-251.5 874,-251.5 874,-230.5 531,-230.5"/>
<text text-anchor="start" x="625" y="-237.3" font-family="Times,serif" font-size="14.00">ptr: 0x5b86b878c860</text>
<polygon fill="lightyellow" stroke="transparent" points="531,-209.5 531,-230.5 874,-230.5 874,-209.5 531,-209.5"/>
<polygon fill="none" stroke="gray" points="531,-209.5 531,-230.5 874,-230.5 874,-209.5 531,-209.5"/>
<text text-anchor="start" x="664.5" y="-216.3" font-family="Times,serif" font-size="14.00">type: &quot;OP&quot;</text>
<polygon fill="lightgreen" stroke="transparent" points="531,-188.5 531,-209.5 874,-209.5 874,-188.5 531,-188.5"/>
<polygon fill="none" stroke="gray" points="531,-188.5 531,-209.5 874,-209.5 874,-188.5 531,-188.5"/>
<text text-anchor="start" x="673" y="-195.3" font-family="Times,serif" font-size="14.00">data: &quot;&#45;&quot;</text>
<polygon fill="none" stroke="gray" points="531,-161.5 531,-188.5 874,-188.5 874,-161.5 531,-161.5"/>
<polygon fill="none" stroke="gray" points="534,-164.5 534,-185.5 697,-185.5 697,-164.5 534,-164.5"/>
<text text-anchor="start" x="537" y="-171.3" font-family="Times,serif" font-size="14.00">left: 0x5b86b878c8a0</text>
<polygon fill="none" stroke="gray" points="697,-164.5 697,-185.5 871,-185.5 871,-164.5 697,-164.5"/>
<text text-anchor="start" x="700" y="-171.3" font-family="Times,serif" font-size="14.00">right: 0x5b86b878c8e0</text>
<polygon fill="none" stroke="gray" points="529.5,-161 529.5,-274 874.5,-274 874.5,-161 529.5,-161"/>
</g>
<!-- node8&#45;&gt;node12 -->
<g id="edge5" class="edge">
<title>node8&#45;&gt;node12</title>
<path fill="none" stroke="green" d="M701.39,-313.57C701.44,-305.28 701.5,-296.69 701.55,-288.24"/>
<polygon fill="green" stroke="green" points="705.05,-288.03 701.62,-278.01 698.05,-287.99 705.05,-288.03"/>
</g>
<!-- node10 -->
<g id="node4" class="node">
<title>node10</title>
<polygon fill="lightgray" stroke="transparent" points="8,-4 8,-117 196,-117 196,-4 8,-4"/>
<polygon fill="none" stroke="yellow" points="9,-94.5 9,-115.5 195,-115.5 195,-94.5 9,-94.5"/>
<text text-anchor="start" x="12" y="-101.3" font-family="Times,serif" font-size="14.00">parent: 0x5b86b878c7a0</text>
<polygon fill="lightblue" stroke="transparent" points="9,-73.5 9,-94.5 195,-94.5 195,-73.5 9,-73.5"/>
<polygon fill="none" stroke="yellow" points="9,-73.5 9,-94.5 195,-94.5 195,-73.5 9,-73.5"/>
<text text-anchor="start" x="25" y="-80.3" font-family="Times,serif" font-size="14.00">ptr: 0x5b86b878c7e0</text>
<polygon fill="lightyellow" stroke="transparent" points="9,-52.5 9,-73.5 195,-73.5 195,-52.5 9,-52.5"/>
<polygon fill="none" stroke="yellow" points="9,-52.5 9,-73.5 195,-73.5 195,-52.5 9,-52.5"/>
<text text-anchor="start" x="55.5" y="-59.3" font-family="Times,serif" font-size="14.00">type: &quot;NUM&quot;</text>
<polygon fill="lightgreen" stroke="transparent" points="9,-31.5 9,-52.5 195,-52.5 195,-31.5 9,-31.5"/>
<polygon fill="none" stroke="yellow" points="9,-31.5 9,-52.5 195,-52.5 195,-31.5 9,-31.5"/>
<text text-anchor="start" x="41" y="-38.3" font-family="Times,serif" font-size="14.00">data: &quot;0.000000&quot;</text>
<polygon fill="none" stroke="yellow" points="9,-4.5 9,-31.5 195,-31.5 195,-4.5 9,-4.5"/>
<polygon fill="none" stroke="yellow" points="12,-7.5 12,-28.5 97,-28.5 97,-7.5 12,-7.5"/>
<text text-anchor="start" x="23.5" y="-14.3" font-family="Times,serif" font-size="14.00">left: (nil)</text>
<polygon fill="none" stroke="yellow" points="97,-7.5 97,-28.5 192,-28.5 192,-7.5 97,-7.5"/>
<text text-anchor="start" x="108" y="-14.3" font-family="Times,serif" font-size="14.00">right: (nil)</text>
<polygon fill="none" stroke="yellow" points="8,-4 8,-117 196,-117 196,-4 8,-4"/>
</g>
<!-- node9&#45;&gt;node10 -->
<g id="edge3" class="edge">
<title>node9&#45;&gt;node10</title>
<path fill="none" stroke="green" d="M237.26,-156.79C223.39,-147.03 208.97,-136.86 194.92,-126.97"/>
<polygon fill="green" stroke="green" points="196.89,-124.07 186.7,-121.17 192.86,-129.8 196.89,-124.07"/>
</g>
<!-- node11 -->
<g id="node5" class="node">
<title>node11</title>
<polygon fill="lightgray" stroke="transparent" points="230,-4 230,-117 418,-117 418,-4 230,-4"/>
<polygon fill="none" stroke="yellow" points="231,-94.5 231,-115.5 417,-115.5 417,-94.5 231,-94.5"/>
<text text-anchor="start" x="234" y="-101.3" font-family="Times,serif" font-size="14.00">parent: 0x5b86b878c7a0</text>
<polygon fill="lightblue" stroke="transparent" points="231,-73.5 231,-94.5 417,-94.5 417,-73.5 231,-73.5"/>
<polygon fill="none" stroke="yellow" points="231,-73.5 231,-94.5 417,-94.5 417,-73.5 231,-73.5"/>
<text text-anchor="start" x="246.5" y="-80.3" font-family="Times,serif" font-size="14.00">ptr: 0x5b86b878c820</text>
<polygon fill="lightyellow" stroke="transparent" points="231,-52.5 231,-73.5 417,-73.5 417,-52.5 231,-52.5"/>
<polygon fill="none" stroke="yellow" points="231,-52.5 231,-73.5 417,-73.5 417,-52.5 231,-52.5"/>
<text text-anchor="start" x="277.5" y="-59.3" font-family="Times,serif" font-size="14.00">type: &quot;NUM&quot;</text>
<polygon fill="lightgreen" stroke="transparent" points="231,-31.5 231,-52.5 417,-52.5 417,-31.5 231,-31.5"/>
<polygon fill="none" stroke="yellow" points="231,-31.5 231,-52.5 417,-52.5 417,-31.5 231,-31.5"/>
<text text-anchor="start" x="263" y="-38.3" font-family="Times,serif" font-size="14.00">data: &quot;1.000000&quot;</text>
<polygon fill="none" stroke="yellow" points="231,-4.5 231,-31.5 417,-31.5 417,-4.5 231,-4.5"/>
<polygon fill="none" stroke="yellow" points="234,-7.5 234,-28.5 319,-28.5 319,-7.5 234,-7.5"/>
<text text-anchor="start" x="245.5" y="-14.3" font-family="Times,serif" font-size="14.00">left: (nil)</text>
<polygon fill="none" stroke="yellow" points="319,-7.5 319,-28.5 414,-28.5 414,-7.5 319,-7.5"/>
<text text-anchor="start" x="330" y="-14.3" font-family="Times,serif" font-size="14.00">right: (nil)</text>
<polygon fill="none" stroke="yellow" points="230,-4 230,-117 418,-117 418,-4 230,-4"/>
</g>
<!-- node9&#45;&gt;node11 -->
<g id="edge4" class="edge">
<title>node9&#45;&gt;node11</title>
<path fill="none" stroke="green" d="M322.77,-156.57C322.88,-148.28 322.99,-139.69 323.1,-131.24"/>
<polygon fill="green" stroke="green" points="326.6,-131.06 323.23,-121.01 319.6,-130.97 326.6,-131.06"/>
</g>
<!-- node13 -->
<g id="node7" class="node">
<title>node13</title>
<polygon fill="lightgray" stroke="transparent" points="463.5,-4 463.5,-117 652.5,-117 652.5,-4 463.5,-4"/>
<polygon fill="none" stroke="yellow" points="465,-94.5 465,-115.5 652,-115.5 652,-94.5 465,-94.5"/>
<text text-anchor="start" x="468" y="-101.3" font-family="Times,serif" font-size="14.00">parent: 0x5b86b878c860</text>
<polygon fill="lightblue" stroke="transparent" points="465,-73.5 465,-94.5 652,-94.5 652,-73.5 465,-73.5"/>
<polygon fill="none" stroke="yellow" points="465,-73.5 465,-94.5 652,-94.5 652,-73.5 465,-73.5"/>
<text text-anchor="start" x="481.5" y="-80.3" font-family="Times,serif" font-size="14.00">ptr: 0x5b86b878c8a0</text>
<polygon fill="lightyellow" stroke="transparent" points="465,-52.5 465,-73.5 652,-73.5 652,-52.5 465,-52.5"/>
<polygon fill="none" stroke="yellow" points="465,-52.5 465,-73.5 652,-73.5 652,-52.5 465,-52.5"/>
<text text-anchor="start" x="516.5" y="-59.3" font-family="Times,serif" font-size="14.00">type: &quot;VAR&quot;</text>
<polygon fill="lightgreen" stroke="transparent" points="465,-31.5 465,-52.5 652,-52.5 652,-31.5 465,-31.5"/>
<polygon fill="none" stroke="yellow" points="465,-31.5 465,-52.5 652,-52.5 652,-31.5 465,-31.5"/>
<text text-anchor="start" x="527" y="-38.3" font-family="Times,serif" font-size="14.00">data: &quot;x&quot;</text>
<polygon fill="none" stroke="yellow" points="465,-4.5 465,-31.5 652,-31.5 652,-4.5 465,-4.5"/>
<polygon fill="none" stroke="yellow" points="468,-7.5 468,-28.5 553,-28.5 553,-7.5 468,-7.5"/>
<text text-anchor="start" x="479.5" y="-14.3" font-family="Times,serif" font-size="14.00">left: (nil)</text>
<polygon fill="none" stroke="yellow" points="553,-7.5 553,-28.5 649,-28.5 649,-7.5 553,-7.5"/>
<text text-anchor="start" x="564.5" y="-14.3" font-family="Times,serif" font-size="14.00">right: (nil)</text>
<polygon fill="none" stroke="yellow" points="463.5,-4 463.5,-117 652.5,-117 652.5,-4 463.5,-4"/>
</g>
<!-- node12&#45;&gt;node13 -->
<g id="edge6" class="edge">
<title>node12&#45;&gt;node13</title>
<path fill="none" stroke="green" d="M646.33,-156.57C637.77,-147.36 628.89,-137.81 620.2,-128.46"/>
<polygon fill="green" stroke="green" points="622.66,-125.96 613.29,-121.01 617.53,-130.72 622.66,-125.96"/>
</g>
<!-- node14 -->
<g id="node8" class="node">
<title>node14</title>
<polygon fill="lightgray" stroke="transparent" points="686.5,-4 686.5,-117 875.5,-117 875.5,-4 686.5,-4"/>
<polygon fill="none" stroke="yellow" points="688,-94.5 688,-115.5 875,-115.5 875,-94.5 688,-94.5"/>
<text text-anchor="start" x="691" y="-101.3" font-family="Times,serif" font-size="14.00">parent: 0x5b86b878c860</text>
<polygon fill="lightblue" stroke="transparent" points="688,-73.5 688,-94.5 875,-94.5 875,-73.5 688,-73.5"/>
<polygon fill="none" stroke="yellow" points="688,-73.5 688,-94.5 875,-94.5 875,-73.5 688,-73.5"/>
<text text-anchor="start" x="704.5" y="-80.3" font-family="Times,serif" font-size="14.00">ptr: 0x5b86b878c8e0</text>
<polygon fill="lightyellow" stroke="transparent" points="688,-52.5 688,-73.5 875,-73.5 875,-52.5 688,-52.5"/>
<polygon fill="none" stroke="yellow" points="688,-52.5 688,-73.5 875,-73.5 875,-52.5 688,-52.5"/>
<text text-anchor="start" x="735" y="-59.3" font-family="Times,serif" font-size="14.00">type: &quot;NUM&quot;</text>
<polygon fill="lightgreen" stroke="transparent" points="688,-31.5 688,-52.5 875,-52.5 875,-31.5 688,-31.5"/>
<polygon fill="none" stroke="yellow" points="688,-31.5 688,-52.5 875,-52.5 875,-31.5 688,-31.5"/>
<text text-anchor="start" x="716" y="-38.3" font-family="Times,serif" font-size="14.00">data: &quot;10.000000&quot;</text>
<polygon fill="none" stroke="yellow" points="688,-4.5 688,-31.5 875,-31.5 875,-4.5 688,-4.5"/>
<polygon fill="none" stroke="yellow" points="691,-7.5 691,-28.5 776,-28.5 776,-7.5 691,-7.5"/>
<text text-anchor="start" x="702.5" y="-14.3" font-family="Times,serif" font-size="14.00">left: (nil)</text>
<polygon fill="none" stroke="yellow" points="776,-7.5 776,-28.5 872,-28.5 872,-7.5 776,-7.5"/>
<text text-anchor="start" x="787.5" y="-14.3" font-family="Times,serif" font-size="14.00">right: (nil)</text>
<polygon fill="none" stroke="yellow" points="686.5,-4 686.5,-117 875.5,-117 875.5,-4 686.5,-4"/>
</g>
<!-- node12&#45;&gt;node14 -->
<g id="edge7" class="edge">
<title>node12&#45;&gt;node14</title>
<path fill="none" stroke="green" d="M732.54,-156.57C736.96,-147.91 741.53,-138.94 746.02,-130.12"/>
<polygon fill="green" stroke="green" points="749.25,-131.51 750.67,-121.01 743.01,-128.33 749.25,-131.51"/>
</g>
<!-- node16 -->
<g id="node10" class="node">
<title>node16</title>
<polygon fill="lightgray" stroke="transparent" points="908.5,-161 908.5,-274 1253.5,-274 1253.5,-161 908.5,-161"/>
<polygon fill="none" stroke="gray" points="910,-251.5 910,-272.5 1253,-272.5 1253,-251.5 910,-251.5"/>
<text text-anchor="start" x="991" y="-258.3" font-family="Times,serif" font-size="14.00">parent: 0x5b86b878c760</text>
<polygon fill="lightblue" stroke="transparent" points="910,-230.5 910,-251.5 1253,-251.5 1253,-230.5 910,-230.5"/>
<polygon fill="none" stroke="gray" points="910,-230.5 910,-251.5 1253,-251.5 1253,-230.5 910,-230.5"/>
<text text-anchor="start" x="1004" y="-237.3" font-family="Times,serif" font-size="14.00">ptr: 0x5b86b878c920</text>
<polygon fill="lightyellow" stroke="transparent" points="910,-209.5 910,-230.5 1253,-230.5 1253,-209.5 910,-209.5"/>
<polygon fill="none" stroke="gray" points="910,-209.5 910,-230.5 1253,-230.5 1253,-209.5 910,-209.5"/>
<text text-anchor="start" x="1043.5" y="-216.3" font-family="Times,serif" font-size="14.00">type: &quot;OP&quot;</text>
<polygon fill="lightgreen" stroke="transparent" points="910,-188.5 910,-209.5 1253,-209.5 1253,-188.5 910,-188.5"/>
<polygon fill="none" stroke="gray" points="910,-188.5 910,-209.5 1253,-209.5 1253,-188.5 910,-188.5"/>
<text text-anchor="start" x="1048" y="-195.3" font-family="Times,serif" font-size="14.00">data: &quot;+&quot;</text>
<polygon fill="none" stroke="gray" points="910,-161.5 910,-188.5 1253,-188.5 1253,-161.5 910,-161.5"/>
<polygon fill="none" stroke="gray" points="913,-164.5 913,-185.5 1076,-185.5 1076,-164.5 913,-164.5"/>
<text text-anchor="start" x="916" y="-171.3" font-family="Times,serif" font-size="14.00">left: 0x5b86b878c960</text>
<polygon fill="none" stroke="gray" points="1076,-164.5 1076,-185.5 1250,-185.5 1250,-164.5 1076,-164.5"/>
<text text-anchor="start" x="1079" y="-171.3" font-family="Times,serif" font-size="14.00">right: 0x5b86b878c9a0</text>
<polygon fill="none" stroke="gray" points="908.5,-161 908.5,-274 1253.5,-274 1253.5,-161 908.5,-161"/>
</g>
<!-- node15&#45;&gt;node16 -->
<g id="edge9" class="edge">
<title>node15&#45;&gt;node16</title>
<path fill="none" stroke="green" d="M1081,-313.57C1081,-305.28 1081,-296.69 1081,-288.24"/>
<polygon fill="green" stroke="green" points="1084.5,-288.01 1081,-278.01 1077.5,-288.01 1084.5,-288.01"/>
</g>
<!-- node19 -->
<g id="node13" class="node">
<title>node19</title>
<polygon fill="lightgray" stroke="transparent" points="1287.5,-161 1287.5,-274 1632.5,-274 1632.5,-161 1287.5,-161"/>
<polygon fill="none" stroke="gray" points="1289,-251.5 1289,-272.5 1632,-272.5 1632,-251.5 1289,-251.5"/>
<text text-anchor="start" x="1370" y="-258.3" font-family="Times,serif" font-size="14.00">parent: 0x5b86b878c760</text>
<polygon fill="lightblue" stroke="transparent" points="1289,-230.5 1289,-251.5 1632,-251.5 1632,-230.5 1289,-230.5"/>
<polygon fill="none" stroke="gray" points="1289,-230.5 1289,-251.5 1632,-251.5 1632,-230.5 1289,-230.5"/>
<text text-anchor="start" x="1383.5" y="-237.3" font-family="Times,serif" font-size="14.00">ptr: 0x5b86b878c9e0</text>
<polygon fill="lightyellow" stroke="transparent" points="1289,-209.5 1289,-230.5 1632,-230.5 1632,-209.5 1289,-209.5"/>
<polygon fill="none" stroke="gray" points="1289,-209.5 1289,-230.5 1632,-230.5 1632,-209.5 1289,-209.5"/>
<text text-anchor="start" x="1422.5" y="-216.3" font-family="Times,serif" font-size="14.00">type: &quot;OP&quot;</text>
<polygon fill="lightgreen" stroke="transparent" points="1289,-188.5 1289,-209.5 1632,-209.5 1632,-188.5 1289,-188.5"/>
<polygon fill="none" stroke="gray" points="1289,-188.5 1289,-209.5 1632,-209.5 1632,-188.5 1289,-188.5"/>
<text text-anchor="start" x="1431" y="-195.3" font-family="Times,serif" font-size="14.00">data: &quot;&#45;&quot;</text>
<polygon fill="none" stroke="gray" points="1289,-161.5 1289,-188.5 1632,-188.5 1632,-161.5 1289,-161.5"/>
<polygon fill="none" stroke="gray" points="1292,-164.5 1292,-185.5 1455,-185.5 1455,-164.5 1292,-164.5"/>
<text text-anchor="start" x="1295" y="-171.3" font-family="Times,serif" font-size="14.00">left: 0x5b86b878ca20</text>
<polygon fill="none" stroke="gray" points="1455,-164.5 1455,-185.5 1629,-185.5 1629,-164.5 1455,-164.5"/>
<text text-anchor="start" x="1458" y="-171.3" font-family="Times,serif" font-size="14.00">right: 0x5b86b878ca60</text>
<polygon fill="none" stroke="gray" points="1287.5,-161 1287.5,-274 1632.5,-274 1632.5,-161 1287.5,-161"/>
</g>
<!-- node15&#45;&gt;node19 -->
<g id="edge12" class="edge">
<title>node15&#45;&gt;node19</title>
<path fill="none" stroke="green" d="M1226.72,-313.91C1252.27,-303.46 1278.94,-292.55 1304.74,-282"/>
<polygon fill="green" stroke="green" points="1306.27,-285.15 1314.2,-278.13 1303.62,-278.67 1306.27,-285.15"/>
</g>
<!-- node17 -->
<g id="node11" class="node">
<title>node17</title>
<polygon fill="lightgray" stroke="transparent" points="915.5,-4 915.5,-117 1104.5,-117 1104.5,-4 915.5,-4"/>
<polygon fill="none" stroke="yellow" points="917,-94.5 917,-115.5 1104,-115.5 1104,-94.5 917,-94.5"/>
<text text-anchor="start" x="920" y="-101.3" font-family="Times,serif" font-size="14.00">parent: 0x5b86b878c920</text>
<polygon fill="lightblue" stroke="transparent" points="917,-73.5 917,-94.5 1104,-94.5 1104,-73.5 917,-73.5"/>
<polygon fill="none" stroke="yellow" points="917,-73.5 917,-94.5 1104,-94.5 1104,-73.5 917,-73.5"/>
<text text-anchor="start" x="933" y="-80.3" font-family="Times,serif" font-size="14.00">ptr: 0x5b86b878c960</text>
<polygon fill="lightyellow" stroke="transparent" points="917,-52.5 917,-73.5 1104,-73.5 1104,-52.5 917,-52.5"/>
<polygon fill="none" stroke="yellow" points="917,-52.5 917,-73.5 1104,-73.5 1104,-52.5 917,-52.5"/>
<text text-anchor="start" x="964" y="-59.3" font-family="Times,serif" font-size="14.00">type: &quot;NUM&quot;</text>
<polygon fill="lightgreen" stroke="transparent" points="917,-31.5 917,-52.5 1104,-52.5 1104,-31.5 917,-31.5"/>
<polygon fill="none" stroke="yellow" points="917,-31.5 917,-52.5 1104,-52.5 1104,-31.5 917,-31.5"/>
<text text-anchor="start" x="949.5" y="-38.3" font-family="Times,serif" font-size="14.00">data: &quot;3.000000&quot;</text>
<polygon fill="none" stroke="yellow" points="917,-4.5 917,-31.5 1104,-31.5 1104,-4.5 917,-4.5"/>
<polygon fill="none" stroke="yellow" points="920,-7.5 920,-28.5 1005,-28.5 1005,-7.5 920,-7.5"/>
<text text-anchor="start" x="931.5" y="-14.3" font-family="Times,serif" font-size="14.00">left: (nil)</text>
<polygon fill="none" stroke="yellow" points="1005,-7.5 1005,-28.5 1101,-28.5 1101,-7.5 1005,-7.5"/>
<text text-anchor="start" x="1016.5" y="-14.3" font-family="Times,serif" font-size="14.00">right: (nil)</text>
<polygon fill="none" stroke="yellow" points="915.5,-4 915.5,-117 1104.5,-117 1104.5,-4 915.5,-4"/>
</g>
<!-- node16&#45;&gt;node17 -->
<g id="edge10" class="edge">
<title>node16&#45;&gt;node17</title>
<path fill="none" stroke="green" d="M1053.55,-156.57C1049.58,-147.91 1045.47,-138.94 1041.43,-130.12"/>
<polygon fill="green" stroke="green" points="1044.61,-128.65 1037.26,-121.01 1038.24,-131.56 1044.61,-128.65"/>
</g>
<!-- node18 -->
<g id="node12" class="node">
<title>node18</title>
<polygon fill="lightgray" stroke="transparent" points="1138.5,-4 1138.5,-117 1327.5,-117 1327.5,-4 1138.5,-4"/>
<polygon fill="none" stroke="yellow" points="1140,-94.5 1140,-115.5 1327,-115.5 1327,-94.5 1140,-94.5"/>
<text text-anchor="start" x="1143" y="-101.3" font-family="Times,serif" font-size="14.00">parent: 0x5b86b878c920</text>
<polygon fill="lightblue" stroke="transparent" points="1140,-73.5 1140,-94.5 1327,-94.5 1327,-73.5 1140,-73.5"/>
<polygon fill="none" stroke="yellow" points="1140,-73.5 1140,-94.5 1327,-94.5 1327,-73.5 1140,-73.5"/>
<text text-anchor="start" x="1156.5" y="-80.3" font-family="Times,serif" font-size="14.00">ptr: 0x5b86b878c9a0</text>
<polygon fill="lightyellow" stroke="transparent" points="1140,-52.5 1140,-73.5 1327,-73.5 1327,-52.5 1140,-52.5"/>
<polygon fill="none" stroke="yellow" points="1140,-52.5 1140,-73.5 1327,-73.5 1327,-52.5 1140,-52.5"/>
<text text-anchor="start" x="1191.5" y="-59.3" font-family="Times,serif" font-size="14.00">type: &quot;VAR&quot;</text>
<polygon fill="lightgreen" stroke="transparent" points="1140,-31.5 1140,-52.5 1327,-52.5 1327,-31.5 1140,-31.5"/>
<polygon fill="none" stroke="yellow" points="1140,-31.5 1140,-52.5 1327,-52.5 1327,-31.5 1140,-31.5"/>
<text text-anchor="start" x="1202" y="-38.3" font-family="Times,serif" font-size="14.00">data: &quot;x&quot;</text>
<polygon fill="none" stroke="yellow" points="1140,-4.5 1140,-31.5 1327,-31.5 1327,-4.5 1140,-4.5"/>
<polygon fill="none" stroke="yellow" points="1143,-7.5 1143,-28.5 1228,-28.5 1228,-7.5 1143,-7.5"/>
<text text-anchor="start" x="1154.5" y="-14.3" font-family="Times,serif" font-size="14.00">left: (nil)</text>
<polygon fill="none" stroke="yellow" points="1228,-7.5 1228,-28.5 1324,-28.5 1324,-7.5 1228,-7.5"/>
<text text-anchor="start" x="1239.5" y="-14.3" font-family="Times,serif" font-size="14.00">right: (nil)</text>
<polygon fill="none" stroke="yellow" points="1138.5,-4 1138.5,-117 1327.5,-117 1327.5,-4 1138.5,-4"/>
</g>
<!-- node16&#45;&gt;node18 -->
<g id="edge11" class="edge">
<title>node16&#45;&gt;node18</title>
<path fill="none" stroke="green" d="M1139.77,-156.57C1148.89,-147.27 1158.36,-137.62 1167.61,-128.18"/>
<polygon fill="green" stroke="green" points="1170.14,-130.6 1174.64,-121.01 1165.14,-125.7 1170.14,-130.6"/>
</g>
<!-- node20 -->
<g id="node14" class="node">
<title>node20</title>
<polygon fill="lightgray" stroke="transparent" points="1364,-4 1364,-117 1552,-117 1552,-4 1364,-4"/>
<polygon fill="none" stroke="yellow" points="1365,-94.5 1365,-115.5 1551,-115.5 1551,-94.5 1365,-94.5"/>
<text text-anchor="start" x="1368" y="-101.3" font-family="Times,serif" font-size="14.00">parent: 0x5b86b878c9e0</text>
<polygon fill="lightblue" stroke="transparent" points="1365,-73.5 1365,-94.5 1551,-94.5 1551,-73.5 1365,-73.5"/>
<polygon fill="none" stroke="yellow" points="1365,-73.5 1365,-94.5 1551,-94.5 1551,-73.5 1365,-73.5"/>
<text text-anchor="start" x="1381" y="-80.3" font-family="Times,serif" font-size="14.00">ptr: 0x5b86b878ca20</text>
<polygon fill="lightyellow" stroke="transparent" points="1365,-52.5 1365,-73.5 1551,-73.5 1551,-52.5 1365,-52.5"/>
<polygon fill="none" stroke="yellow" points="1365,-52.5 1365,-73.5 1551,-73.5 1551,-52.5 1365,-52.5"/>
<text text-anchor="start" x="1411.5" y="-59.3" font-family="Times,serif" font-size="14.00">type: &quot;NUM&quot;</text>
<polygon fill="lightgreen" stroke="transparent" points="1365,-31.5 1365,-52.5 1551,-52.5 1551,-31.5 1365,-31.5"/>
<polygon fill="none" stroke="yellow" points="1365,-31.5 1365,-52.5 1551,-52.5 1551,-31.5 1365,-31.5"/>
<text text-anchor="start" x="1397" y="-38.3" font-family="Times,serif" font-size="14.00">data: &quot;1.000000&quot;</text>
<polygon fill="none" stroke="yellow" points="1365,-4.5 1365,-31.5 1551,-31.5 1551,-4.5 1365,-4.5"/>
<polygon fill="none" stroke="yellow" points="1368,-7.5 1368,-28.5 1453,-28.5 1453,-7.5 1368,-7.5"/>
<text text-anchor="start" x="1379.5" y="-14.3" font-family="Times,serif" font-size="14.00">left: (nil)</text>
<polygon fill="none" stroke="yellow" points="1453,-7.5 1453,-28.5 1548,-28.5 1548,-7.5 1453,-7.5"/>
<text text-anchor="start" x="1464" y="-14.3" font-family="Times,serif" font-size="14.00">right: (nil)</text>
<polygon fill="none" stroke="yellow" points="1364,-4 1364,-117 1552,-117 1552,-4 1364,-4"/>
</g>
<!-- node19&#45;&gt;node20 -->
<g id="edge13" class="edge">
<title>node19&#45;&gt;node20</title>
<path fill="none" stroke="green" d="M1459.23,-156.57C1459.12,-148.28 1459.01,-139.69 1458.9,-131.24"/>
<polygon fill="green" stroke="green" points="1462.4,-130.97 1458.77,-121.01 1455.4,-131.06 1462.4,-130.97"/>
</g>
<!-- node21 -->
<g id="node15" class="node">
<title>node21</title>
<polygon fill="lightgray" stroke="transparent" points="1586,-4 1586,-117 1774,-117 1774,-4 1586,-4"/>
<polygon fill="none" stroke="yellow" points="1587,-94.5 1587,-115.5 1773,-115.5 1773,-94.5 1587,-94.5"/>
<text text-anchor="start" x="1590" y="-101.3" font-family="Times,serif" font-size="14.00">parent: 0x5b86b878c9e0</text>
<polygon fill="lightblue" stroke="transparent" points="1587,-73.5 1587,-94.5 1773,-94.5 1773,-73.5 1587,-73.5"/>
<polygon fill="none" stroke="yellow" points="1587,-73.5 1587,-94.5 1773,-94.5 1773,-73.5 1587,-73.5"/>
<text text-anchor="start" x="1603" y="-80.3" font-family="Times,serif" font-size="14.00">ptr: 0x5b86b878ca60</text>
<polygon fill="lightyellow" stroke="transparent" points="1587,-52.5 1587,-73.5 1773,-73.5 1773,-52.5 1587,-52.5"/>
<polygon fill="none" stroke="yellow" points="1587,-52.5 1587,-73.5 1773,-73.5 1773,-52.5 1587,-52.5"/>
<text text-anchor="start" x="1633.5" y="-59.3" font-family="Times,serif" font-size="14.00">type: &quot;NUM&quot;</text>
<polygon fill="lightgreen" stroke="transparent" points="1587,-31.5 1587,-52.5 1773,-52.5 1773,-31.5 1587,-31.5"/>
<polygon fill="none" stroke="yellow" points="1587,-31.5 1587,-52.5 1773,-52.5 1773,-31.5 1587,-31.5"/>
<text text-anchor="start" x="1619" y="-38.3" font-family="Times,serif" font-size="14.00">data: &quot;0.000000&quot;</text>
<polygon fill="none" stroke="yellow" points="1587,-4.5 1587,-31.5 1773,-31.5 1773,-4.5 1587,-4.5"/>
<polygon fill="none" stroke="yellow" points="1590,-7.5 1590,-28.5 1675,-28.5 1675,-7.5 1590,-7.5"/>
<text text-anchor="start" x="1601.5" y="-14.3" font-family="Times,serif" font-size="14.00">left: (nil)</text>
<polygon fill="none" stroke="yellow" points="1675,-7.5 1675,-28.5 1770,-28.5 1770,-7.5 1675,-7.5"/>
<text text-anchor="start" x="1686" y="-14.3" font-family="Times,serif" font-size="14.00">right: (nil)</text>
<polygon fill="none" stroke="yellow" points="1586,-4 1586,-117 1774,-117 1774,-4 1586,-4"/>
</g>
<!-- node19&#45;&gt;node21 -->
<g id="edge14" class="edge">
<title>node19&#45;&gt;node21</title>
<path fill="none" stroke="green" d="M1544.74,-156.79C1558.61,-147.03 1573.03,-136.86 1587.08,-126.97"/>
<polygon fill="green" stroke="green" points="1589.14,-129.8 1595.3,-121.17 1585.11,-124.07 1589.14,-129.8"/>
</g>
</g>
</svg>
